<?xml version="1.0" standalone="no"?>
<!DOCTYPE svg PUBLIC "-//W3C//DTD SVG 20010904//EN"
 "http://www.w3.org/TR/2001/REC-SVG-20010904/DTD/svg10.dtd">
<svg version="1.0" xmlns="http://www.w3.org/2000/svg"
 width="10pt" height="10pt" viewBox="0 0 200.000000 200.000000"
 preserveAspectRatio="xMidYMid meet">
<metadata>
Created by potrace 1.16, written by Peter Selinger 2001-2019
</metadata>
<g transform="translate(0.000000,200.000000) scale(0.100000,-0.100000)"
fill="#9500ba" stroke="none">
<path d="M165 1978 c-57 -45 -55 -11 -55 -978 0 -967 -2 -933 55 -978 31 -25
101 -30 138 -11 12 6 365 210 785 452 497 286 769 449 780 466 22 33 22 109 0
143 -11 16 -283 179 -780 465 -420 242 -773 446 -785 452 -37 19 -107 14 -138
-11z"/>
</g>
</svg>
