<?xml version="1.0" standalone="no"?>
<!DOCTYPE svg PUBLIC "-//W3C//DTD SVG 20010904//EN"
 "http://www.w3.org/TR/2001/REC-SVG-20010904/DTD/svg10.dtd">
<svg version="1.0" xmlns="http://www.w3.org/2000/svg"
 width="10pt" height="10pt" viewBox="0 0 840.000000 717.000000"
 preserveAspectRatio="xMidYMid meet">
<g transform="translate(0.000000,717.000000) scale(0.100000,-0.100000)"
fill="#636363" stroke="none">
<path d="M3585 6759 c-80 -13 -189 -57 -256 -104 -37 -26 -672 -653 -1590
-1571 -841 -841 -1529 -1531 -1529 -1534 0 -8 3057 -3063 3090 -3088 128 -98
324 -148 481 -122 216 36 388 160 479 345 52 105 70 180 70 290 0 115 -20 197
-72 299 -40 79 -65 105 -810 851 -422 424 -768 774 -768 778 0 4 1128 8 2508
9 l2507 3 73 27 c256 93 432 341 432 608 0 243 -142 468 -361 573 -52 25 -118
50 -147 56 -37 8 -790 11 -2532 11 -1364 0 -2480 3 -2480 7 0 4 346 354 768
778 746 747 770 772 810 851 23 45 48 110 57 145 17 75 20 216 4 291 -15 77
-91 224 -149 290 -141 159 -375 242 -585 207z"/>
</g>
</svg>
