<?xml version="1.0" standalone="no"?>
<!DOCTYPE svg PUBLIC "-//W3C//DTD SVG 20010904//EN"
 "http://www.w3.org/TR/2001/REC-SVG-20010904/DTD/svg10.dtd">
<svg version="1.0" xmlns="http://www.w3.org/2000/svg"
 width="10pt" height="10pt" viewBox="0 0 512.000000 512.000000"
 preserveAspectRatio="xMidYMid meet">

<g transform="translate(0.000000,512.000000) scale(0.100000,-0.100000)"
fill="#c9c9c9" stroke="none">
<path d="M740 4251 c-116 -37 -213 -119 -267 -229 l-38 -76 -3 -1360 c-2
-1225 -1 -1365 14 -1415 37 -127 107 -212 222 -268 l76 -38 1815 0 1816 0 66
31 c116 55 192 142 229 262 19 62 20 97 20 1198 0 1109 0 1136 -20 1191 -42
121 -134 218 -252 266 l-53 22 -1010 3 -1011 2 -209 210 -210 210 -580 -1
c-319 0 -591 -4 -605 -8z"/>
</g>
</svg>
