<?xml version="1.0" standalone="no"?>
<!DOCTYPE svg PUBLIC "-//W3C//DTD SVG 20010904//EN"
 "http://www.w3.org/TR/2001/REC-SVG-20010904/DTD/svg10.dtd">
<svg version="1.0" xmlns="http://www.w3.org/2000/svg"
 width="10pt" height="10pt" viewBox="0 0 1024.000000 1024.000000"
 preserveAspectRatio="xMidYMid meet">
<metadata>
Created by potrace 1.16, written by Peter Selinger 2001-2019
</metadata>
<g transform="translate(0.000000,1024.000000) scale(0.100000,-0.100000)"
fill="#c9c9c9" stroke="none">
<path d="M3299 9802 c-155 -41 -279 -174 -309 -331 -5 -29 -10 -157 -10 -282
l0 -229 -492 0 c-398 0 -510 -3 -581 -15 -446 -79 -828 -399 -982 -825 -14
-41 -36 -113 -48 -160 l-21 -85 -4 -3135 c-3 -3476 -7 -3226 63 -3436 70 -211
158 -351 324 -514 214 -210 457 -326 754 -359 135 -15 6119 -15 6254 0 298 33
539 148 754 359 166 164 262 316 328 523 66 207 62 -28 59 3427 l-4 3135 -21
85 c-61 242 -162 432 -320 600 -185 197 -425 329 -695 381 -89 17 -148 19
-593 19 l-495 0 0 229 c0 125 -5 253 -10 282 -15 80 -57 157 -119 220 -210
209 -560 151 -692 -116 l-34 -69 -3 -273 -3 -273 -1279 0 -1279 0 -3 273 -3
273 -34 69 c-59 120 -170 206 -299 234 -72 15 -124 13 -203 -7z m-319 -1935
c0 -177 4 -247 15 -292 47 -181 201 -310 384 -322 186 -13 338 73 418 235 l38
76 3 268 3 268 1279 0 1279 0 3 -268 3 -268 38 -76 c128 -260 468 -319 680
-119 30 28 66 73 80 99 49 90 57 145 57 399 l0 233 454 0 c428 0 458 -1 520
-20 141 -44 253 -169 285 -318 7 -36 11 -261 11 -707 l0 -655 -3410 0 -3410 0
0 655 c0 446 4 671 11 707 32 149 143 273 286 318 53 17 98 19 516 19 l457 1
0 -233z m5550 -4256 c0 -1261 -4 -1947 -10 -1982 -33 -176 -185 -316 -368
-340 -88 -11 -5976 -11 -6064 0 -183 24 -335 164 -368 340 -6 35 -10 721 -10
1982 l0 1929 3410 0 3410 0 0 -1929z"/>
</g>
</svg>
