<?xml version="1.0" standalone="no"?>
<!DOCTYPE svg PUBLIC "-//W3C//DTD SVG 20010904//EN"
 "http://www.w3.org/TR/2001/REC-SVG-20010904/DTD/svg10.dtd">
<svg version="1.0" xmlns="http://www.w3.org/2000/svg"
 width="10pt" height="10pt" viewBox="0 0 972.000000 793.000000"
 preserveAspectRatio="xMidYMid meet">
<metadata>
Created by potrace 1.16, written by Peter Selinger 2001-2019
</metadata>
<g transform="translate(0.000000,793.000000) scale(0.100000,-0.100000)"
fill="#c9c9c9" stroke="none">
<path d="M2745 7901 c-210 -61 -344 -226 -345 -423 l0 -48 2460 0 2460 0 0 48
c-1 156 -97 310 -238 381 -129 65 27 61 -2227 60 -1921 0 -2054 -2 -2110 -18z"/>
<path d="M1770 6914 c-132 -35 -252 -124 -303 -227 -49 -96 -58 -169 -55 -470
l3 -272 3445 0 3445 0 3 272 c3 301 -6 374 -55 470 -33 67 -127 157 -195 188
-130 59 106 55 -3203 54 -2623 0 -3037 -2 -3085 -15z"/>
<path d="M409 5933 c-278 -279 -298 -303 -336 -380 -87 -174 -84 -298 16 -863
67 -380 217 -1255 506 -2955 178 -1046 214 -1251 230 -1306 58 -202 208 -341
435 -405 63 -18 196 -19 3530 -22 2286 -2 3497 1 3560 7 214 23 372 112 471
265 78 119 52 -9 379 1911 285 1677 383 2247 446 2595 84 465 83 605 -3 780
-34 69 -59 97 -337 372 l-301 296 -3 -389 -2 -389 -4140 0 -4140 0 0 390 c0
215 -4 390 -8 390 -4 0 -141 -134 -303 -297z m3171 -2068 l0 -395 1280 0 1280
0 0 395 0 395 345 0 345 0 0 -518 c0 -480 -1 -524 -19 -594 -49 -189 -160
-309 -326 -353 -52 -13 -251 -15 -1625 -15 -1710 0 -1622 -3 -1732 57 -61 34
-138 115 -173 182 -14 29 -35 87 -46 129 -18 70 -19 114 -19 594 l0 518 345 0
345 0 0 -395z"/>
</g>
</svg>
